<svg width="42" height="23" viewBox="0 0 42 23" fill="none" xmlns="http://www.w3.org/2000/svg">
<g filter="url(#filter0_d_12509_164)">
<path d="M15.9799 4.20629L13.9851 14.2363H11.2259L11.4123 13.2482C10.5796 14.0064 9.55423 14.3855 8.33621 14.3855C7.5532 14.3855 6.83233 14.2053 6.1736 13.8448C5.51487 13.4844 4.98665 12.9686 4.58893 12.2974C4.20363 11.6139 4.01099 10.8122 4.01099 9.89247C4.01099 8.7863 4.25335 7.792 4.73807 6.90956C5.23522 6.01468 5.90638 5.31867 6.75154 4.82152C7.5967 4.31194 8.52886 4.05715 9.54802 4.05715C11.0892 4.05715 12.1767 4.56051 12.8106 5.56724L13.0716 4.20629H15.9799ZM9.23108 11.9805C9.80281 11.9805 10.3124 11.8438 10.7598 11.5704C11.2073 11.2845 11.5553 10.893 11.8038 10.3958C12.0524 9.89868 12.1767 9.32696 12.1767 8.68066C12.1767 7.99708 11.9716 7.45642 11.5615 7.0587C11.1638 6.66098 10.6045 6.46212 9.8836 6.46212C9.31187 6.46212 8.80229 6.60505 8.35485 6.89091C7.90742 7.16435 7.55941 7.54964 7.31083 8.04679C7.06226 8.54394 6.93797 9.11567 6.93797 9.76197C6.93797 10.4456 7.13683 10.9862 7.53455 11.3839C7.9447 11.7816 8.51021 11.9805 9.23108 11.9805Z" fill="url(#paint0_linear_12509_164)"/>
<path d="M19.5861 14.3855C18.7161 14.3855 17.8895 14.2923 17.1065 14.1058C16.3359 13.907 15.7331 13.6522 15.2981 13.3415L16.4167 11.2348C16.8517 11.5206 17.38 11.7506 18.0014 11.9246C18.6353 12.0986 19.2691 12.1856 19.903 12.1856C20.5617 12.1856 21.0527 12.1048 21.3758 11.9432C21.699 11.7692 21.8605 11.5269 21.8605 11.2161C21.8605 10.9676 21.7176 10.7873 21.4318 10.6755C21.1459 10.5636 20.686 10.4455 20.0522 10.3213C19.3313 10.1845 18.7347 10.0354 18.2624 9.87383C17.8025 9.71225 17.3986 9.45125 17.0506 9.09081C16.715 8.71795 16.5472 8.21458 16.5472 7.58071C16.5472 6.47455 17.0071 5.61075 17.9268 4.98931C18.859 4.36787 20.077 4.05715 21.5809 4.05715C22.2769 4.05715 22.9543 4.13172 23.613 4.28086C24.2717 4.43001 24.831 4.63508 25.2909 4.89609L24.2469 7.02141C23.4266 6.51183 22.4385 6.25704 21.2826 6.25704C20.6487 6.25704 20.164 6.35026 19.8284 6.53669C19.5053 6.72312 19.3437 6.95927 19.3437 7.24513C19.3437 7.50614 19.4866 7.69878 19.7725 7.82307C20.0584 7.93493 20.5369 8.05922 21.208 8.19594C21.9165 8.33265 22.4944 8.4818 22.9419 8.64337C23.4017 8.79252 23.7994 9.04731 24.135 9.40775C24.4706 9.76818 24.6384 10.2591 24.6384 10.8806C24.6384 11.9992 24.1661 12.863 23.2215 13.472C22.2893 14.081 21.0775 14.3855 19.5861 14.3855Z" fill="url(#paint1_linear_12509_164)"/>
<path d="M32.5664 8.5688L36.0154 14.2363H32.641L30.2547 10.3399L28.4835 11.8127L27.9988 14.2363H25.0905L27.8497 0.403076H30.758L29.2106 8.14001L34.0206 4.20629H37.8051L32.5664 8.5688Z" fill="url(#paint2_linear_12509_164)"/>
</g>
<defs>
<filter id="filter0_d_12509_164" x="0.0109863" y="0.403076" width="41.7942" height="21.9824" filterUnits="userSpaceOnUse" color-interpolation-filters="sRGB">
<feFlood flood-opacity="0" result="BackgroundImageFix"/>
<feColorMatrix in="SourceAlpha" type="matrix" values="0 0 0 0 0 0 0 0 0 0 0 0 0 0 0 0 0 0 127 0" result="hardAlpha"/>
<feOffset dy="4"/>
<feGaussianBlur stdDeviation="2"/>
<feComposite in2="hardAlpha" operator="out"/>
<feColorMatrix type="matrix" values="0 0 0 0 0 0 0 0 0 0 0 0 0 0 0 0 0 0 0.25 0"/>
<feBlend mode="normal" in2="BackgroundImageFix" result="effect1_dropShadow_12509_164"/>
<feBlend mode="normal" in="SourceGraphic" in2="effect1_dropShadow_12509_164" result="shape"/>
</filter>
<linearGradient id="paint0_linear_12509_164" x1="4.01099" y1="0.403076" x2="11.8651" y2="22.5833" gradientUnits="userSpaceOnUse">
<stop stop-color="#485BFF"/>
<stop offset="1" stop-color="#FF59F8"/>
</linearGradient>
<linearGradient id="paint1_linear_12509_164" x1="4.01099" y1="0.403076" x2="11.8651" y2="22.5833" gradientUnits="userSpaceOnUse">
<stop stop-color="#485BFF"/>
<stop offset="1" stop-color="#FF59F8"/>
</linearGradient>
<linearGradient id="paint2_linear_12509_164" x1="4.01099" y1="0.403076" x2="11.8651" y2="22.5833" gradientUnits="userSpaceOnUse">
<stop stop-color="#485BFF"/>
<stop offset="1" stop-color="#FF59F8"/>
</linearGradient>
</defs>
</svg>
