<svg width="62" height="25" viewBox="0 0 62 25" fill="none" xmlns="http://www.w3.org/2000/svg">
<g filter="url(#filter0_d_12509_163)">
<path d="M5 1.40308H7.90834V15.2363H5V1.40308Z" fill="#29292E"/>
<path d="M19.6868 10.2586C19.6868 10.2959 19.6681 10.5569 19.6308 11.0416H12.0431C12.1798 11.6631 12.5029 12.154 13.0125 12.5144C13.5221 12.8749 14.156 13.0551 14.9141 13.0551C15.4361 13.0551 15.896 12.9805 16.2937 12.8314C16.7039 12.6698 17.0829 12.4212 17.4309 12.0856L18.9783 13.7635C18.0337 14.8448 16.6541 15.3855 14.8395 15.3855C13.7085 15.3855 12.708 15.168 11.838 14.733C10.968 14.2855 10.2968 13.6703 9.82451 12.8873C9.35222 12.1043 9.11607 11.2156 9.11607 10.2213C9.11607 9.23944 9.346 8.35699 9.80587 7.57398C10.2782 6.77853 10.9182 6.16331 11.7261 5.7283C12.5464 5.28086 13.4599 5.05715 14.4667 5.05715C15.4485 5.05715 16.3372 5.26843 17.1326 5.69101C17.9281 6.11359 18.5495 6.72261 18.997 7.51805C19.4568 8.30106 19.6868 9.21458 19.6868 10.2586ZM14.4853 7.25704C13.8266 7.25704 13.2735 7.44348 12.8261 7.81634C12.3786 8.1892 12.1052 8.69878 12.0058 9.34508H16.9462C16.8468 8.71121 16.5734 8.20785 16.1259 7.83498C15.6785 7.44969 15.1316 7.25704 14.4853 7.25704Z" fill="#29292E"/>
<path d="M27.3465 14.7516C27.0606 14.9629 26.7064 15.1245 26.2838 15.2363C25.8737 15.3358 25.4387 15.3855 24.9788 15.3855C23.7857 15.3855 22.8597 15.081 22.201 14.472C21.5547 13.863 21.2315 12.9681 21.2315 11.7873V7.66719H19.6841V5.43001H21.2315V2.98775H24.1399V5.43001H26.6381V7.66719H24.1399V11.7501C24.1399 12.1726 24.2455 12.502 24.4568 12.7381C24.6805 12.9619 24.9912 13.0737 25.389 13.0737C25.8488 13.0737 26.2403 12.9494 26.5635 12.7009L27.3465 14.7516Z" fill="#29292E"/>
<path d="M41.0785 5.05715C42.3338 5.05715 43.3282 5.43001 44.0615 6.17574C44.8072 6.90904 45.18 8.0152 45.18 9.49423V15.2363H42.2717V9.94167C42.2717 9.14622 42.1039 8.55585 41.7683 8.17056C41.4452 7.77284 40.9791 7.57398 40.3701 7.57398C39.6865 7.57398 39.1459 7.7977 38.7481 8.24513C38.3504 8.68014 38.1516 9.33265 38.1516 10.2027V15.2363H35.2432V9.94167C35.2432 8.36321 34.6093 7.57398 33.3416 7.57398C32.6705 7.57398 32.136 7.7977 31.7383 8.24513C31.3406 8.68014 31.1417 9.33265 31.1417 10.2027V15.2363H28.2334V5.20629H31.0112V6.36217C31.3841 5.93959 31.8377 5.61644 32.3722 5.39272C32.919 5.169 33.5156 5.05715 34.1619 5.05715C34.8704 5.05715 35.5104 5.20008 36.0822 5.48594C36.6539 5.75937 37.1137 6.16331 37.4618 6.69775C37.8719 6.17574 38.3877 5.7718 39.0091 5.48594C39.643 5.20008 40.3328 5.05715 41.0785 5.05715Z" fill="#29292E"/>
<path d="M56.9754 10.2586C56.9754 10.2959 56.9567 10.5569 56.9194 11.0416H49.3317C49.4684 11.6631 49.7915 12.154 50.3011 12.5144C50.8107 12.8749 51.4445 13.0551 52.2027 13.0551C52.7247 13.0551 53.1846 12.9805 53.5823 12.8314C53.9925 12.6698 54.3715 12.4212 54.7195 12.0856L56.2669 13.7635C55.3223 14.8448 53.9427 15.3855 52.1281 15.3855C50.9971 15.3855 49.9966 15.168 49.1266 14.733C48.2566 14.2855 47.5854 13.6703 47.1131 12.8873C46.6408 12.1043 46.4047 11.2156 46.4047 10.2213C46.4047 9.23944 46.6346 8.35699 47.0945 7.57398C47.5668 6.77853 48.2068 6.16331 49.0147 5.7283C49.835 5.28086 50.7485 5.05715 51.7553 5.05715C52.7371 5.05715 53.6258 5.26843 54.4212 5.69101C55.2167 6.11359 55.8381 6.72261 56.2856 7.51805C56.7454 8.30106 56.9754 9.21458 56.9754 10.2586ZM51.7739 7.25704C51.1152 7.25704 50.5621 7.44348 50.1147 7.81634C49.6672 8.1892 49.3938 8.69878 49.2944 9.34508H54.2348C54.1354 8.71121 53.862 8.20785 53.4145 7.83498C52.9671 7.44969 52.4202 7.25704 51.7739 7.25704Z" fill="#29292E"/>
<path d="M48.7765 5.2887C47.8886 5.76706 47.1825 6.44632 46.6645 7.31871L46.6633 7.32077C46.1547 8.18675 45.9047 9.15789 45.9047 10.2213C45.9047 11.2984 46.1616 12.2778 46.685 13.1455C47.2085 14.0136 47.9514 14.6908 48.8979 15.1776L48.8979 15.1776L48.903 15.1802C49.8529 15.6551 50.9321 15.8855 52.1281 15.8855C54.0461 15.8855 55.58 15.3099 56.6435 14.0925L56.9387 13.7545L56.6345 13.4246L55.0871 11.7467L54.898 11.5416H56.9194H57.3825L57.418 11.08C57.4538 10.6138 57.4754 10.3212 57.4754 10.2586C57.4754 9.14077 57.2288 8.13853 56.719 7.26877M48.7765 5.2887C48.7769 5.28849 48.7773 5.28828 48.7777 5.28806L49.0146 5.72803L48.7753 5.28935C48.7757 5.28914 48.7761 5.28892 48.7765 5.2887ZM48.7765 5.2887C49.6755 4.79857 50.672 4.55715 51.7553 4.55715C52.8114 4.55715 53.7818 4.78512 54.6558 5.24946C55.5355 5.7168 56.2255 6.39313 56.719 7.26877M56.719 7.26877C56.7183 7.26746 56.7175 7.26615 56.7167 7.26484L56.2856 7.51802L56.7214 7.27292C56.7206 7.27153 56.7198 7.27015 56.719 7.26877ZM5 0.903076H4.5V1.40308V15.2363V15.7363H5H7.90834H8.40834V15.2363V1.40308V0.903076H7.90834H5ZM19.6308 11.5416H20.0939L20.1294 11.08C20.1652 10.6138 20.1868 10.3212 20.1868 10.2586C20.1868 9.50758 20.0755 8.80874 19.8478 8.16719H20.7315V11.7873C20.7315 13.0584 21.0816 14.1042 21.8581 14.8359L21.8581 14.8359L21.8616 14.8391C22.6397 15.5585 23.7023 15.8855 24.9788 15.8855C25.4749 15.8855 25.9496 15.8318 26.4016 15.7223L26.4017 15.7224L26.4118 15.7197C26.8818 15.5953 27.2969 15.4101 27.6437 15.1537L27.7334 15.0874V15.2363V15.7363H28.2334H31.1417H31.6417V15.2363V10.2027C31.6417 9.39918 31.8263 8.88985 32.1073 8.58252L32.1073 8.58255L32.112 8.57731C32.4027 8.25022 32.794 8.07398 33.3416 8.07398C33.8658 8.07398 34.1794 8.23174 34.378 8.479C34.5934 8.7472 34.7432 9.2062 34.7432 9.94167V15.2363V15.7363H35.2432H38.1516H38.6516V15.2363V10.2027C38.6516 9.39918 38.8362 8.88985 39.1172 8.58252L39.1172 8.58255L39.1218 8.57731C39.4107 8.25233 39.8069 8.07398 40.3701 8.07398C40.8601 8.07398 41.1703 8.22744 41.3803 8.48586L41.3857 8.4925L41.3913 8.49895C41.6137 8.75433 41.7717 9.20279 41.7717 9.94167V15.2363V15.7363H42.2717H45.18H45.68V15.2363V9.49423C45.68 7.93924 45.2881 6.68269 44.4151 5.82224C43.5696 4.96417 42.4376 4.55715 41.0785 4.55715C40.2672 4.55715 39.5067 4.71307 38.8036 5.03013L38.8002 5.03169C38.3062 5.25893 37.8692 5.55506 37.4919 5.91955C37.1583 5.55202 36.7609 5.2569 36.3018 5.03677C35.6545 4.7139 34.9379 4.55715 34.1619 4.55715C33.4568 4.55715 32.7952 4.67943 32.1828 4.92995L32.1828 4.92993L32.1791 4.9315C31.9432 5.03026 31.7204 5.14665 31.5112 5.28063V5.20629V4.70629H31.0112H28.2334H27.7334V5.20629V14.3631L27.0306 12.5225L26.791 11.895L26.2586 12.3045C26.034 12.4774 25.7534 12.5737 25.389 12.5737C25.097 12.5737 24.9281 12.4968 24.8203 12.3943C24.7194 12.2757 24.6399 12.0814 24.6399 11.7501V8.16719H26.6381H27.1381V7.66719V5.43001V4.93001H26.6381H24.6399V2.98775V2.48775H24.1399H21.2315H20.7315V2.98775V4.93001H19.6841H19.1841V5.43001V6.87211C18.7162 6.18644 18.1092 5.64362 17.3672 5.24946C16.4932 4.78512 15.5228 4.55715 14.4667 4.55715C13.3834 4.55715 12.3869 4.79857 11.4879 5.28871C10.6 5.76707 9.89392 6.44632 9.37594 7.31871L9.37473 7.32077C8.86613 8.18675 8.61607 9.15789 8.61607 10.2213C8.61607 11.2984 8.87299 12.2778 9.39637 13.1455C9.91994 14.0136 10.6628 14.6908 11.6093 15.1776L11.6093 15.1776L11.6144 15.1802C12.5643 15.6551 13.6435 15.8855 14.8395 15.8855C16.7575 15.8855 18.2914 15.3099 19.3549 14.0925L19.6501 13.7545L19.3459 13.4246L17.7985 11.7467L17.6094 11.5416H19.6308ZM13.3012 12.1062C13.078 11.9483 12.9008 11.7615 12.7682 11.5416H17.2748L17.0839 11.7257C16.7796 12.0191 16.4564 12.2293 16.1143 12.3646C15.7847 12.4876 15.3876 12.5551 14.9141 12.5551C14.2368 12.5551 13.7096 12.3951 13.3012 12.1062ZM15.7997 8.21387L15.7996 8.21392L15.8058 8.21909C16.0101 8.38932 16.1703 8.59552 16.2842 8.84508H12.6624C12.777 8.58475 12.9394 8.37275 13.1462 8.20045C13.492 7.91226 13.9273 7.75704 14.4853 7.75704C15.024 7.75704 15.4518 7.91431 15.7997 8.21387ZM50.0568 11.5416H54.5634L54.3725 11.7257C54.0682 12.0191 53.745 12.2293 53.4029 12.3646C53.0732 12.4876 52.6762 12.5551 52.2027 12.5551C51.5254 12.5551 50.9982 12.3951 50.5898 12.1062C50.3666 11.9483 50.1894 11.7615 50.0568 11.5416ZM53.0883 8.21387L53.0882 8.21392L53.0944 8.21909C53.2987 8.38932 53.4589 8.59552 53.5728 8.84508H49.951C50.0656 8.58475 50.228 8.37275 50.4348 8.20045C50.7806 7.91226 51.2159 7.75704 51.7739 7.75704C52.3126 7.75704 52.7404 7.91431 53.0883 8.21387Z" stroke="black"/>
</g>
<defs>
<filter id="filter0_d_12509_163" x="0" y="0.403076" width="61.9753" height="23.9824" filterUnits="userSpaceOnUse" color-interpolation-filters="sRGB">
<feFlood flood-opacity="0" result="BackgroundImageFix"/>
<feColorMatrix in="SourceAlpha" type="matrix" values="0 0 0 0 0 0 0 0 0 0 0 0 0 0 0 0 0 0 127 0" result="hardAlpha"/>
<feOffset dy="4"/>
<feGaussianBlur stdDeviation="2"/>
<feComposite in2="hardAlpha" operator="out"/>
<feColorMatrix type="matrix" values="0 0 0 0 0 0 0 0 0 0 0 0 0 0 0 0 0 0 0.25 0"/>
<feBlend mode="normal" in2="BackgroundImageFix" result="effect1_dropShadow_12509_163"/>
<feBlend mode="normal" in="SourceGraphic" in2="effect1_dropShadow_12509_163" result="shape"/>
</filter>
</defs>
</svg>
