<svg width="459" height="575" viewBox="0 0 459 575" fill="none" xmlns="http://www.w3.org/2000/svg">
<path opacity="0.5" d="M146.574 123.837C173.956 107.856 196.593 122.792 200.598 157.279C201.295 163.244 196.768 171.126 191.239 174.348L101.91 226.514C96.3813 229.736 91.8539 227.124 92.5504 220.331C96.5554 181.272 119.236 139.818 146.574 123.837Z" fill="url(#paint0_linear_114_0)"/>
<path opacity="0.5" d="M116.058 79.0734C116.058 102.892 129.814 114.126 146.792 104.198C163.77 94.2703 177.526 66.9681 177.526 43.1494C177.526 19.3307 163.77 8.09633 146.792 18.0244C129.814 27.9525 116.058 55.2547 116.058 79.0734Z" fill="url(#paint1_linear_114_0)"/>
<path opacity="0.07" d="M128.987 109.554C156.369 93.5736 179.006 108.509 183.011 142.996C183.708 148.962 179.181 156.843 173.652 160.066L84.3228 212.232C78.7941 215.454 74.2667 212.841 74.9633 206.048C78.9683 166.989 101.605 125.535 128.987 109.554Z" fill="url(#paint2_linear_114_0)"/>
<path opacity="0.07" d="M98.4709 64.7909C98.4709 88.6096 112.227 99.844 129.205 89.9159C146.183 79.9878 159.939 52.6856 159.939 28.8669C159.939 5.04826 146.183 -6.18614 129.205 3.74194C112.227 13.67 98.4709 40.9722 98.4709 64.7909Z" fill="url(#paint3_linear_114_0)"/>
<path opacity="0.2" d="M39.31 246.651C39.31 245.049 40.1645 243.569 41.5516 242.768L109.941 203.271C112.93 201.544 116.668 203.702 116.668 207.154V239.708L39.31 284.384V246.651Z" fill="url(#paint4_linear_114_0)"/>
<path d="M100.952 221.985C100.952 225.295 102.911 226.862 105.349 225.469C107.787 224.076 109.746 220.244 109.746 216.934C109.746 213.625 107.787 212.057 105.349 213.451C102.911 214.844 100.952 218.676 100.952 221.985Z" fill="#E559F9"/>
<path opacity="0.15" d="M96.8603 220.548L73.6138 234.004V238.837L96.9038 225.382L96.8603 220.548Z" fill="#FEFEFE"/>
<path opacity="0.15" d="M96.8602 230.259L47.32 258.867V263.788L96.8602 235.179V230.259Z" fill="#FEFEFE"/>
<path opacity="0.2" d="M196.463 200.06C196.463 198.457 197.318 196.977 198.706 196.176L267.096 156.717C270.085 154.993 273.821 157.15 273.821 160.601V193.159L196.463 237.835V200.06Z" fill="url(#paint5_linear_114_0)"/>
<path d="M258.105 175.393C258.105 178.703 260.064 180.27 262.502 178.877C264.94 177.483 266.899 173.651 266.899 170.342C266.899 167.033 264.94 165.465 262.502 166.859C260.064 168.252 258.105 172.084 258.105 175.393Z" fill="#835AFD"/>
<path opacity="0.15" d="M254.144 174.174L240.126 182.273V187.194L254.144 179.094V174.174Z" fill="#FEFEFE"/>
<path opacity="0.15" d="M254.013 183.884L204.473 212.493V217.413L254.013 188.805V183.884Z" fill="#FEFEFE"/>
<path opacity="0.3" d="M146.614 249.832C146.616 246.378 142.878 244.219 139.887 245.946L2.28354 325.416C0.897232 326.216 0.0429077 327.695 0.0419922 329.296L-6.10352e-05 403.129L133.645 325.969L144.617 329.553C145.583 329.869 146.575 329.149 146.575 328.133L146.614 249.832Z" fill="url(#paint6_linear_114_0)"/>
<path d="M116.842 284.863C116.842 291.177 120.542 294.095 125.156 291.438C129.771 288.782 133.471 281.51 133.471 275.24C133.471 268.926 129.771 266.009 125.156 268.665C120.586 271.321 116.842 278.593 116.842 284.863Z" fill="#E559F9"/>
<path opacity="0.15" d="M108.919 282.425L76.7917 300.975V307.68L108.919 289.131V282.425Z" fill="#FEFEFE"/>
<path opacity="0.15" d="M108.919 295.88L12.9728 351.268V357.974L108.919 302.586V295.88Z" fill="#FEFEFE"/>
<path opacity="0.15" d="M108.919 309.335L33.912 352.662V359.367L108.919 316.041V309.335Z" fill="#FEFEFE"/>
<path opacity="0.3" d="M166.424 266.593C166.425 264.992 167.28 263.512 168.667 262.712L306.27 183.284C309.26 181.558 312.997 183.717 312.996 187.17L312.956 255.819L179.311 332.979L169.118 348.084C168.293 349.307 166.384 348.722 166.384 347.248L166.424 266.593Z" fill="url(#paint7_linear_114_0)"/>
<path d="M196.202 272.41C196.202 278.723 192.458 285.952 187.887 288.608C183.273 291.264 179.572 288.303 179.572 281.989C179.572 275.675 183.316 268.447 187.887 265.791C192.458 263.178 196.202 266.139 196.202 272.41Z" fill="#835AFD"/>
<path opacity="0.15" d="M204.125 260.87L236.252 242.321V249.026L204.125 267.576V260.87Z" fill="#FEFEFE"/>
<path opacity="0.15" d="M204.081 274.282L300.027 218.894V225.6L204.125 280.988L204.081 274.282Z" fill="#FEFEFE"/>
<path opacity="0.15" d="M204.081 287.737L279.088 244.411V251.116L204.081 294.443V287.737Z" fill="#FEFEFE"/>
<path opacity="0.2" d="M251.967 311.599C249.355 313.08 247.266 316.738 247.266 319.786V333.067L238.472 338.118C235.86 339.598 233.771 343.256 233.771 346.26C233.771 349.265 235.86 350.484 238.472 349.004L247.266 343.909V357.19C247.266 360.195 249.355 361.414 251.967 359.933C254.579 358.453 256.669 354.795 256.669 351.791V338.51L265.462 333.459C268.074 331.978 270.164 328.32 270.164 325.316C270.164 322.311 268.074 321.092 265.462 322.572L256.669 327.624V314.343C256.712 311.295 254.579 310.075 251.967 311.599Z" fill="url(#paint8_linear_114_0)"/>
<path opacity="0.2" d="M62.8176 141.472L50.7155 165.247C49.0613 168.513 49.3225 171.779 51.325 172.563C53.3275 173.347 56.2877 171.3 57.9419 168.034L58.0726 167.729V194.117C58.0726 197.122 60.1621 198.341 62.7741 196.86C65.386 195.336 67.4756 191.722 67.4756 188.718V162.33L67.6062 162.461C69.2604 163.81 72.2642 162.417 74.2232 159.325C76.2257 156.234 76.4869 152.663 74.8326 151.313L62.8176 141.472Z" fill="url(#paint9_linear_114_0)"/>
<path d="M20.412 419.728V424.66H13.716V445H7.56V424.66H0.864V419.728H20.412ZM32.6455 445.288C30.6775 445.288 28.9015 444.868 27.3175 444.028C25.7575 443.188 24.5215 441.988 23.6095 440.428C22.7215 438.868 22.2775 437.044 22.2775 434.956C22.2775 432.892 22.7335 431.08 23.6455 429.52C24.5575 427.936 25.8055 426.724 27.3895 425.884C28.9735 425.044 30.7495 424.624 32.7175 424.624C34.6855 424.624 36.4615 425.044 38.0455 425.884C39.6295 426.724 40.8775 427.936 41.7895 429.52C42.7015 431.08 43.1575 432.892 43.1575 434.956C43.1575 437.02 42.6895 438.844 41.7535 440.428C40.8415 441.988 39.5815 443.188 37.9735 444.028C36.3895 444.868 34.6135 445.288 32.6455 445.288ZM32.6455 439.96C33.8215 439.96 34.8175 439.528 35.6335 438.664C36.4735 437.8 36.8935 436.564 36.8935 434.956C36.8935 433.348 36.4855 432.112 35.6695 431.248C34.8775 430.384 33.8935 429.952 32.7175 429.952C31.5175 429.952 30.5215 430.384 29.7295 431.248C28.9375 432.088 28.5415 433.324 28.5415 434.956C28.5415 436.564 28.9255 437.8 29.6935 438.664C30.4855 439.528 31.4695 439.96 32.6455 439.96ZM45.1994 434.92C45.1994 432.856 45.5834 431.044 46.3514 429.484C47.1434 427.924 48.2114 426.724 49.5554 425.884C50.8994 425.044 52.3994 424.624 54.0554 424.624C55.3754 424.624 56.5754 424.9 57.6554 425.452C58.7594 426.004 59.6234 426.748 60.2474 427.684V418.36H66.4034V445H60.2474V442.12C59.6714 443.08 58.8434 443.848 57.7634 444.424C56.7074 445 55.4714 445.288 54.0554 445.288C52.3994 445.288 50.8994 444.868 49.5554 444.028C48.2114 443.164 47.1434 441.952 46.3514 440.392C45.5834 438.808 45.1994 436.984 45.1994 434.92ZM60.2474 434.956C60.2474 433.42 59.8154 432.208 58.9514 431.32C58.1114 430.432 57.0794 429.988 55.8554 429.988C54.6314 429.988 53.5874 430.432 52.7234 431.32C51.8834 432.184 51.4634 433.384 51.4634 434.92C51.4634 436.456 51.8834 437.68 52.7234 438.592C53.5874 439.48 54.6314 439.924 55.8554 439.924C57.0794 439.924 58.1114 439.48 58.9514 438.592C59.8154 437.704 60.2474 436.492 60.2474 434.956ZM69.633 434.92C69.633 432.856 70.017 431.044 70.785 429.484C71.577 427.924 72.645 426.724 73.989 425.884C75.333 425.044 76.833 424.624 78.489 424.624C79.905 424.624 81.141 424.912 82.197 425.488C83.277 426.064 84.105 426.82 84.681 427.756V424.912H90.837V445H84.681V442.156C84.081 443.092 83.241 443.848 82.161 444.424C81.105 445 79.869 445.288 78.453 445.288C76.821 445.288 75.333 444.868 73.989 444.028C72.645 443.164 71.577 441.952 70.785 440.392C70.017 438.808 69.633 436.984 69.633 434.92ZM84.681 434.956C84.681 433.42 84.249 432.208 83.385 431.32C82.545 430.432 81.513 429.988 80.289 429.988C79.065 429.988 78.021 430.432 77.157 431.32C76.317 432.184 75.897 433.384 75.897 434.92C75.897 436.456 76.317 437.68 77.157 438.592C78.021 439.48 79.065 439.924 80.289 439.924C81.513 439.924 82.545 439.48 83.385 438.592C84.249 437.704 84.681 436.492 84.681 434.956ZM109.076 427.756C109.676 426.82 110.504 426.064 111.56 425.488C112.616 424.912 113.852 424.624 115.268 424.624C116.924 424.624 118.424 425.044 119.768 425.884C121.112 426.724 122.168 427.924 122.936 429.484C123.728 431.044 124.124 432.856 124.124 434.92C124.124 436.984 123.728 438.808 122.936 440.392C122.168 441.952 121.112 443.164 119.768 444.028C118.424 444.868 116.924 445.288 115.268 445.288C113.876 445.288 112.64 445 111.56 444.424C110.504 443.848 109.676 443.104 109.076 442.192V454.576H102.92V424.912H109.076V427.756ZM117.86 434.92C117.86 433.384 117.428 432.184 116.564 431.32C115.724 430.432 114.68 429.988 113.432 429.988C112.208 429.988 111.164 430.432 110.3 431.32C109.46 432.208 109.04 433.42 109.04 434.956C109.04 436.492 109.46 437.704 110.3 438.592C111.164 439.48 112.208 439.924 113.432 439.924C114.656 439.924 115.7 439.48 116.564 438.592C117.428 437.68 117.86 436.456 117.86 434.92ZM146.289 434.632C146.289 435.208 146.253 435.808 146.181 436.432H132.249C132.345 437.68 132.741 438.64 133.437 439.312C134.157 439.96 135.033 440.284 136.065 440.284C137.601 440.284 138.669 439.636 139.269 438.34H145.821C145.485 439.66 144.873 440.848 143.985 441.904C143.121 442.96 142.029 443.788 140.709 444.388C139.389 444.988 137.913 445.288 136.281 445.288C134.313 445.288 132.561 444.868 131.025 444.028C129.489 443.188 128.289 441.988 127.425 440.428C126.561 438.868 126.129 437.044 126.129 434.956C126.129 432.868 126.549 431.044 127.389 429.484C128.253 427.924 129.453 426.724 130.989 425.884C132.525 425.044 134.289 424.624 136.281 424.624C138.225 424.624 139.953 425.032 141.465 425.848C142.977 426.664 144.153 427.828 144.993 429.34C145.857 430.852 146.289 432.616 146.289 434.632ZM139.989 433.012C139.989 431.956 139.629 431.116 138.909 430.492C138.189 429.868 137.289 429.556 136.209 429.556C135.177 429.556 134.301 429.856 133.581 430.456C132.885 431.056 132.453 431.908 132.285 433.012H139.989ZM155.693 428.26C156.413 427.156 157.313 426.292 158.393 425.668C159.473 425.02 160.673 424.696 161.993 424.696V431.212H160.301C158.765 431.212 157.613 431.548 156.845 432.22C156.077 432.868 155.693 434.02 155.693 435.676V445H149.537V424.912H155.693V428.26ZM172.567 424.624C173.983 424.624 175.219 424.912 176.275 425.488C177.355 426.064 178.183 426.82 178.759 427.756V424.912H184.915V444.964C184.915 446.812 184.543 448.48 183.799 449.968C183.079 451.48 181.963 452.68 180.451 453.568C178.963 454.456 177.103 454.9 174.871 454.9C171.895 454.9 169.483 454.192 167.635 452.776C165.787 451.384 164.731 449.488 164.467 447.088H170.551C170.743 447.856 171.199 448.456 171.919 448.888C172.639 449.344 173.527 449.572 174.583 449.572C175.855 449.572 176.863 449.2 177.607 448.456C178.375 447.736 178.759 446.572 178.759 444.964V442.12C178.159 443.056 177.331 443.824 176.275 444.424C175.219 445 173.983 445.288 172.567 445.288C170.911 445.288 169.411 444.868 168.067 444.028C166.723 443.164 165.655 441.952 164.863 440.392C164.095 438.808 163.711 436.984 163.711 434.92C163.711 432.856 164.095 431.044 164.863 429.484C165.655 427.924 166.723 426.724 168.067 425.884C169.411 425.044 170.911 424.624 172.567 424.624ZM178.759 434.956C178.759 433.42 178.327 432.208 177.463 431.32C176.623 430.432 175.591 429.988 174.367 429.988C173.143 429.988 172.099 430.432 171.235 431.32C170.395 432.184 169.975 433.384 169.975 434.92C169.975 436.456 170.395 437.68 171.235 438.592C172.099 439.48 173.143 439.924 174.367 439.924C175.591 439.924 176.623 439.48 177.463 438.592C178.327 437.704 178.759 436.492 178.759 434.956ZM209.205 424.912V445H203.049V442.264C202.425 443.152 201.573 443.872 200.493 444.424C199.437 444.952 198.261 445.216 196.965 445.216C195.429 445.216 194.073 444.88 192.897 444.208C191.721 443.512 190.809 442.516 190.161 441.22C189.513 439.924 189.189 438.4 189.189 436.648V424.912H195.309V435.82C195.309 437.164 195.657 438.208 196.353 438.952C197.049 439.696 197.985 440.068 199.161 440.068C200.361 440.068 201.309 439.696 202.005 438.952C202.701 438.208 203.049 437.164 203.049 435.82V424.912H209.205ZM225.867 424.696C228.219 424.696 230.091 425.464 231.483 427C232.899 428.512 233.607 430.6 233.607 433.264V445H227.487V434.092C227.487 432.748 227.139 431.704 226.443 430.96C225.747 430.216 224.811 429.844 223.635 429.844C222.459 429.844 221.523 430.216 220.827 430.96C220.131 431.704 219.783 432.748 219.783 434.092V445H213.627V424.912H219.783V427.576C220.407 426.688 221.247 425.992 222.303 425.488C223.359 424.96 224.547 424.696 225.867 424.696ZM249.08 439.78V445H245.948C243.716 445 241.976 444.46 240.728 443.38C239.48 442.276 238.856 440.488 238.856 438.016V430.024H236.408V424.912H238.856V420.016H245.012V424.912H249.044V430.024H245.012V438.088C245.012 438.688 245.156 439.12 245.444 439.384C245.732 439.648 246.212 439.78 246.884 439.78H249.08ZM251.285 434.92C251.285 432.856 251.669 431.044 252.437 429.484C253.229 427.924 254.297 426.724 255.641 425.884C256.985 425.044 258.485 424.624 260.141 424.624C261.557 424.624 262.793 424.912 263.849 425.488C264.929 426.064 265.757 426.82 266.333 427.756V424.912H272.489V445H266.333V442.156C265.733 443.092 264.893 443.848 263.813 444.424C262.757 445 261.521 445.288 260.105 445.288C258.473 445.288 256.985 444.868 255.641 444.028C254.297 443.164 253.229 441.952 252.437 440.392C251.669 438.808 251.285 436.984 251.285 434.92ZM266.333 434.956C266.333 433.42 265.901 432.208 265.037 431.32C264.197 430.432 263.165 429.988 261.941 429.988C260.717 429.988 259.673 430.432 258.809 431.32C257.969 432.184 257.549 433.384 257.549 434.92C257.549 436.456 257.969 437.68 258.809 438.592C259.673 439.48 260.717 439.924 261.941 439.924C263.165 439.924 264.197 439.48 265.037 438.592C265.901 437.704 266.333 436.492 266.333 434.956ZM295.768 439.78V445H292.636C290.404 445 288.664 444.46 287.416 443.38C286.168 442.276 285.544 440.488 285.544 438.016V430.024H283.096V424.912H285.544V420.016H291.7V424.912H295.732V430.024H291.7V438.088C291.7 438.688 291.844 439.12 292.132 439.384C292.42 439.648 292.9 439.78 293.572 439.78H295.768ZM318.133 434.632C318.133 435.208 318.097 435.808 318.025 436.432H304.093C304.189 437.68 304.585 438.64 305.281 439.312C306.001 439.96 306.877 440.284 307.909 440.284C309.445 440.284 310.513 439.636 311.113 438.34H317.665C317.329 439.66 316.717 440.848 315.829 441.904C314.965 442.96 313.873 443.788 312.553 444.388C311.233 444.988 309.757 445.288 308.125 445.288C306.157 445.288 304.405 444.868 302.869 444.028C301.333 443.188 300.133 441.988 299.269 440.428C298.405 438.868 297.973 437.044 297.973 434.956C297.973 432.868 298.393 431.044 299.233 429.484C300.097 427.924 301.297 426.724 302.833 425.884C304.369 425.044 306.133 424.624 308.125 424.624C310.069 424.624 311.797 425.032 313.309 425.848C314.821 426.664 315.997 427.828 316.837 429.34C317.701 430.852 318.133 432.616 318.133 434.632ZM311.833 433.012C311.833 431.956 311.473 431.116 310.753 430.492C310.033 429.868 309.133 429.556 308.053 429.556C307.021 429.556 306.145 429.856 305.425 430.456C304.729 431.056 304.297 431.908 304.129 433.012H311.833ZM347.012 424.696C349.508 424.696 351.488 425.452 352.952 426.964C354.44 428.476 355.184 430.576 355.184 433.264V445H349.064V434.092C349.064 432.796 348.716 431.8 348.02 431.104C347.348 430.384 346.412 430.024 345.212 430.024C344.012 430.024 343.064 430.384 342.368 431.104C341.696 431.8 341.36 432.796 341.36 434.092V445H335.24V434.092C335.24 432.796 334.892 431.8 334.196 431.104C333.524 430.384 332.588 430.024 331.388 430.024C330.188 430.024 329.24 430.384 328.544 431.104C327.872 431.8 327.536 432.796 327.536 434.092V445H321.38V424.912H327.536V427.432C328.16 426.592 328.976 425.932 329.984 425.452C330.992 424.948 332.132 424.696 333.404 424.696C334.916 424.696 336.26 425.02 337.436 425.668C338.636 426.316 339.572 427.24 340.244 428.44C340.94 427.336 341.888 426.436 343.088 425.74C344.288 425.044 345.596 424.696 347.012 424.696ZM22.068 466.912V487H15.912V484.264C15.288 485.152 14.436 485.872 13.356 486.424C12.3 486.952 11.124 487.216 9.828 487.216C8.292 487.216 6.936 486.88 5.76 486.208C4.584 485.512 3.672 484.516 3.024 483.22C2.376 481.924 2.052 480.4 2.052 478.648V466.912H8.172V477.82C8.172 479.164 8.52 480.208 9.216 480.952C9.912 481.696 10.848 482.068 12.024 482.068C13.224 482.068 14.172 481.696 14.868 480.952C15.564 480.208 15.912 479.164 15.912 477.82V466.912H22.068ZM52.1218 466.696C54.6178 466.696 56.5978 467.452 58.0618 468.964C59.5498 470.476 60.2938 472.576 60.2938 475.264V487H54.1738V476.092C54.1738 474.796 53.8258 473.8 53.1298 473.104C52.4578 472.384 51.5218 472.024 50.3218 472.024C49.1218 472.024 48.1738 472.384 47.4778 473.104C46.8058 473.8 46.4698 474.796 46.4698 476.092V487H40.3498V476.092C40.3498 474.796 40.0018 473.8 39.3058 473.104C38.6338 472.384 37.6978 472.024 36.4978 472.024C35.2978 472.024 34.3498 472.384 33.6538 473.104C32.9818 473.8 32.6458 474.796 32.6458 476.092V487H26.4898V466.912H32.6458V469.432C33.2698 468.592 34.0858 467.932 35.0938 467.452C36.1018 466.948 37.2418 466.696 38.5138 466.696C40.0258 466.696 41.3698 467.02 42.5458 467.668C43.7458 468.316 44.6818 469.24 45.3538 470.44C46.0498 469.336 46.9978 468.436 48.1978 467.74C49.3978 467.044 50.7058 466.696 52.1218 466.696ZM63.3752 476.92C63.3752 474.856 63.7592 473.044 64.5272 471.484C65.3192 469.924 66.3872 468.724 67.7312 467.884C69.0752 467.044 70.5752 466.624 72.2312 466.624C73.6472 466.624 74.8832 466.912 75.9392 467.488C77.0192 468.064 77.8472 468.82 78.4232 469.756V466.912H84.5792V487H78.4232V484.156C77.8232 485.092 76.9832 485.848 75.9032 486.424C74.8472 487 73.6112 487.288 72.1952 487.288C70.5632 487.288 69.0752 486.868 67.7312 486.028C66.3872 485.164 65.3192 483.952 64.5272 482.392C63.7592 480.808 63.3752 478.984 63.3752 476.92ZM78.4232 476.956C78.4232 475.42 77.9912 474.208 77.1272 473.32C76.2872 472.432 75.2552 471.988 74.0312 471.988C72.8072 471.988 71.7632 472.432 70.8992 473.32C70.0592 474.184 69.6392 475.384 69.6392 476.92C69.6392 478.456 70.0592 479.68 70.8992 480.592C71.7632 481.48 72.8072 481.924 74.0312 481.924C75.2552 481.924 76.2872 481.48 77.1272 480.592C77.9912 479.704 78.4232 478.492 78.4232 476.956ZM102.818 470.26C103.538 469.156 104.438 468.292 105.518 467.668C106.598 467.02 107.798 466.696 109.118 466.696V473.212H107.426C105.89 473.212 104.738 473.548 103.97 474.22C103.202 474.868 102.818 476.02 102.818 477.676V487H96.6617V466.912H102.818V470.26ZM130.996 476.632C130.996 477.208 130.96 477.808 130.888 478.432H116.956C117.052 479.68 117.448 480.64 118.144 481.312C118.864 481.96 119.74 482.284 120.772 482.284C122.308 482.284 123.376 481.636 123.976 480.34H130.528C130.192 481.66 129.58 482.848 128.692 483.904C127.828 484.96 126.736 485.788 125.416 486.388C124.096 486.988 122.62 487.288 120.988 487.288C119.02 487.288 117.268 486.868 115.732 486.028C114.196 485.188 112.996 483.988 112.132 482.428C111.268 480.868 110.836 479.044 110.836 476.956C110.836 474.868 111.256 473.044 112.096 471.484C112.96 469.924 114.16 468.724 115.696 467.884C117.232 467.044 118.996 466.624 120.988 466.624C122.932 466.624 124.66 467.032 126.172 467.848C127.684 468.664 128.86 469.828 129.7 471.34C130.564 472.852 130.996 474.616 130.996 476.632ZM124.696 475.012C124.696 473.956 124.336 473.116 123.616 472.492C122.896 471.868 121.996 471.556 120.916 471.556C119.884 471.556 119.008 471.856 118.288 472.456C117.592 473.056 117.16 473.908 116.992 475.012H124.696ZM142.416 487.288C140.664 487.288 139.104 486.988 137.736 486.388C136.368 485.788 135.288 484.972 134.496 483.94C133.704 482.884 133.26 481.708 133.164 480.412H139.248C139.32 481.108 139.644 481.672 140.22 482.104C140.796 482.536 141.504 482.752 142.344 482.752C143.112 482.752 143.7 482.608 144.108 482.32C144.54 482.008 144.756 481.612 144.756 481.132C144.756 480.556 144.456 480.136 143.856 479.872C143.256 479.584 142.284 479.272 140.94 478.936C139.5 478.6 138.3 478.252 137.34 477.892C136.38 477.508 135.552 476.92 134.856 476.128C134.16 475.312 133.812 474.22 133.812 472.852C133.812 471.7 134.124 470.656 134.748 469.72C135.396 468.76 136.332 468.004 137.556 467.452C138.804 466.9 140.28 466.624 141.984 466.624C144.504 466.624 146.484 467.248 147.924 468.496C149.388 469.744 150.228 471.4 150.444 473.464H144.756C144.66 472.768 144.348 472.216 143.82 471.808C143.316 471.4 142.644 471.196 141.804 471.196C141.084 471.196 140.532 471.34 140.148 471.628C139.764 471.892 139.572 472.264 139.572 472.744C139.572 473.32 139.872 473.752 140.472 474.04C141.096 474.328 142.056 474.616 143.352 474.904C144.84 475.288 146.052 475.672 146.988 476.056C147.924 476.416 148.74 477.016 149.436 477.856C150.156 478.672 150.528 479.776 150.552 481.168C150.552 482.344 150.216 483.4 149.544 484.336C148.896 485.248 147.948 485.968 146.7 486.496C145.476 487.024 144.048 487.288 142.416 487.288ZM160.474 469.756C161.074 468.82 161.902 468.064 162.958 467.488C164.014 466.912 165.25 466.624 166.666 466.624C168.322 466.624 169.822 467.044 171.166 467.884C172.51 468.724 173.566 469.924 174.334 471.484C175.126 473.044 175.522 474.856 175.522 476.92C175.522 478.984 175.126 480.808 174.334 482.392C173.566 483.952 172.51 485.164 171.166 486.028C169.822 486.868 168.322 487.288 166.666 487.288C165.274 487.288 164.038 487 162.958 486.424C161.902 485.848 161.074 485.104 160.474 484.192V496.576H154.318V466.912H160.474V469.756ZM169.258 476.92C169.258 475.384 168.826 474.184 167.962 473.32C167.122 472.432 166.078 471.988 164.83 471.988C163.606 471.988 162.562 472.432 161.698 473.32C160.858 474.208 160.438 475.42 160.438 476.956C160.438 478.492 160.858 479.704 161.698 480.592C162.562 481.48 163.606 481.924 164.83 481.924C166.054 481.924 167.098 481.48 167.962 480.592C168.826 479.68 169.258 478.456 169.258 476.92ZM187.896 487.288C185.928 487.288 184.152 486.868 182.568 486.028C181.008 485.188 179.772 483.988 178.86 482.428C177.972 480.868 177.528 479.044 177.528 476.956C177.528 474.892 177.984 473.08 178.896 471.52C179.808 469.936 181.056 468.724 182.64 467.884C184.224 467.044 186 466.624 187.968 466.624C189.936 466.624 191.712 467.044 193.296 467.884C194.88 468.724 196.128 469.936 197.04 471.52C197.952 473.08 198.408 474.892 198.408 476.956C198.408 479.02 197.94 480.844 197.004 482.428C196.092 483.988 194.832 485.188 193.224 486.028C191.64 486.868 189.864 487.288 187.896 487.288ZM187.896 481.96C189.072 481.96 190.068 481.528 190.884 480.664C191.724 479.8 192.144 478.564 192.144 476.956C192.144 475.348 191.736 474.112 190.92 473.248C190.128 472.384 189.144 471.952 187.968 471.952C186.768 471.952 185.772 472.384 184.98 473.248C184.188 474.088 183.792 475.324 183.792 476.956C183.792 478.564 184.176 479.8 184.944 480.664C185.736 481.528 186.72 481.96 187.896 481.96ZM209.845 487.288C208.093 487.288 206.533 486.988 205.165 486.388C203.797 485.788 202.717 484.972 201.925 483.94C201.133 482.884 200.689 481.708 200.593 480.412H206.677C206.749 481.108 207.073 481.672 207.649 482.104C208.225 482.536 208.933 482.752 209.773 482.752C210.541 482.752 211.129 482.608 211.537 482.32C211.969 482.008 212.185 481.612 212.185 481.132C212.185 480.556 211.885 480.136 211.285 479.872C210.685 479.584 209.713 479.272 208.369 478.936C206.929 478.6 205.729 478.252 204.769 477.892C203.809 477.508 202.981 476.92 202.285 476.128C201.589 475.312 201.241 474.22 201.241 472.852C201.241 471.7 201.553 470.656 202.177 469.72C202.825 468.76 203.761 468.004 204.985 467.452C206.233 466.9 207.709 466.624 209.413 466.624C211.933 466.624 213.913 467.248 215.353 468.496C216.817 469.744 217.657 471.4 217.873 473.464H212.185C212.089 472.768 211.777 472.216 211.249 471.808C210.745 471.4 210.073 471.196 209.233 471.196C208.513 471.196 207.961 471.34 207.577 471.628C207.193 471.892 207.001 472.264 207.001 472.744C207.001 473.32 207.301 473.752 207.901 474.04C208.525 474.328 209.485 474.616 210.781 474.904C212.269 475.288 213.481 475.672 214.417 476.056C215.353 476.416 216.169 477.016 216.865 477.856C217.585 478.672 217.957 479.776 217.981 481.168C217.981 482.344 217.645 483.4 216.973 484.336C216.325 485.248 215.377 485.968 214.129 486.496C212.905 487.024 211.477 487.288 209.845 487.288ZM232.944 481.78V487H229.812C227.58 487 225.84 486.46 224.592 485.38C223.344 484.276 222.72 482.488 222.72 480.016V472.024H220.272V466.912H222.72V462.016H228.876V466.912H232.908V472.024H228.876V480.088C228.876 480.688 229.02 481.12 229.308 481.384C229.596 481.648 230.076 481.78 230.748 481.78H232.944ZM235.149 476.92C235.149 474.856 235.533 473.044 236.301 471.484C237.093 469.924 238.161 468.724 239.505 467.884C240.849 467.044 242.349 466.624 244.005 466.624C245.421 466.624 246.657 466.912 247.713 467.488C248.793 468.064 249.621 468.82 250.197 469.756V466.912H256.353V487H250.197V484.156C249.597 485.092 248.757 485.848 247.677 486.424C246.621 487 245.385 487.288 243.969 487.288C242.337 487.288 240.849 486.868 239.505 486.028C238.161 485.164 237.093 483.952 236.301 482.392C235.533 480.808 235.149 478.984 235.149 476.92ZM250.197 476.956C250.197 475.42 249.765 474.208 248.901 473.32C248.061 472.432 247.029 471.988 245.805 471.988C244.581 471.988 243.537 472.432 242.673 473.32C241.833 474.184 241.413 475.384 241.413 476.92C241.413 478.456 241.833 479.68 242.673 480.592C243.537 481.48 244.581 481.924 245.805 481.924C247.029 481.924 248.061 481.48 248.901 480.592C249.765 479.704 250.197 478.492 250.197 476.956ZM263.686 487.288C262.606 487.288 261.718 486.976 261.022 486.352C260.35 485.704 260.014 484.912 260.014 483.976C260.014 483.016 260.35 482.212 261.022 481.564C261.718 480.916 262.606 480.592 263.686 480.592C264.742 480.592 265.606 480.916 266.278 481.564C266.974 482.212 267.322 483.016 267.322 483.976C267.322 484.912 266.974 485.704 266.278 486.352C265.606 486.976 264.742 487.288 263.686 487.288Z" fill="white"/>
<path opacity="0.7" d="M11.4023 530.547H4.25391L2.64844 535H0.328125L6.84375 517.938H8.8125L15.3398 535H13.0312L11.4023 530.547ZM4.93359 528.695H10.7344L7.82812 520.715L4.93359 528.695ZM28.0078 528.801C28.0078 530.73 27.5664 532.285 26.6836 533.465C25.8008 534.645 24.6055 535.234 23.0977 535.234C21.5586 535.234 20.3477 534.746 19.4648 533.77V539.875H17.2969V522.32H19.2773L19.3828 523.727C20.2656 522.633 21.4922 522.086 23.0625 522.086C24.5859 522.086 25.7891 522.66 26.6719 523.809C27.5625 524.957 28.0078 526.555 28.0078 528.602V528.801ZM25.8398 528.555C25.8398 527.125 25.5352 525.996 24.9258 525.168C24.3164 524.34 23.4805 523.926 22.418 523.926C21.1055 523.926 20.1211 524.508 19.4648 525.672V531.73C20.1133 532.887 21.1055 533.465 22.4414 533.465C23.4805 533.465 24.3047 533.055 24.9141 532.234C25.5312 531.406 25.8398 530.18 25.8398 528.555ZM36.9023 524.266C36.5742 524.211 36.2188 524.184 35.8359 524.184C34.4141 524.184 33.4492 524.789 32.9414 526V535H30.7734V522.32H32.8828L32.918 523.785C33.6289 522.652 34.6367 522.086 35.9414 522.086C36.3633 522.086 36.6836 522.141 36.9023 522.25V524.266ZM43.9336 535.234C42.2148 535.234 40.8164 534.672 39.7383 533.547C38.6602 532.414 38.1211 530.902 38.1211 529.012V528.613C38.1211 527.355 38.3594 526.234 38.8359 525.25C39.3203 524.258 39.9922 523.484 40.8516 522.93C41.7188 522.367 42.6562 522.086 43.6641 522.086C45.3125 522.086 46.5938 522.629 47.5078 523.715C48.4219 524.801 48.8789 526.355 48.8789 528.379V529.281H40.2891C40.3203 530.531 40.6836 531.543 41.3789 532.316C42.082 533.082 42.9727 533.465 44.0508 533.465C44.8164 533.465 45.4648 533.309 45.9961 532.996C46.5273 532.684 46.9922 532.27 47.3906 531.754L48.7148 532.785C47.6523 534.418 46.0586 535.234 43.9336 535.234ZM43.6641 523.867C42.7891 523.867 42.0547 524.188 41.4609 524.828C40.8672 525.461 40.5 526.352 40.3594 527.5H46.7109V527.336C46.6484 526.234 46.3516 525.383 45.8203 524.781C45.2891 524.172 44.5703 523.867 43.6641 523.867ZM53.4492 522.32L53.5195 523.914C54.4883 522.695 55.7539 522.086 57.3164 522.086C59.9961 522.086 61.3477 523.598 61.3711 526.621V535H59.2031V526.609C59.1953 525.695 58.9844 525.02 58.5703 524.582C58.1641 524.145 57.5273 523.926 56.6602 523.926C55.957 523.926 55.3398 524.113 54.8086 524.488C54.2773 524.863 53.8633 525.355 53.5664 525.965V535H51.3984V522.32H53.4492ZM64.1133 528.555C64.1133 526.609 64.5742 525.047 65.4961 523.867C66.418 522.68 67.625 522.086 69.1172 522.086C70.6016 522.086 71.7773 522.594 72.6445 523.609V517H74.8125V535H72.8203L72.7148 533.641C71.8477 534.703 70.6406 535.234 69.0938 535.234C67.625 535.234 66.4258 534.633 65.4961 533.43C64.5742 532.227 64.1133 530.656 64.1133 528.719V528.555ZM66.2812 528.801C66.2812 530.238 66.5781 531.363 67.1719 532.176C67.7656 532.988 68.5859 533.395 69.6328 533.395C71.0078 533.395 72.0117 532.777 72.6445 531.543V525.719C71.9961 524.523 71 523.926 69.6562 523.926C68.5938 523.926 67.7656 524.336 67.1719 525.156C66.5781 525.977 66.2812 527.191 66.2812 528.801ZM86.0156 535C85.8906 534.75 85.7891 534.305 85.7109 533.664C84.7031 534.711 83.5 535.234 82.1016 535.234C80.8516 535.234 79.8242 534.883 79.0195 534.18C78.2227 533.469 77.8242 532.57 77.8242 531.484C77.8242 530.164 78.3242 529.141 79.3242 528.414C80.332 527.68 81.7461 527.312 83.5664 527.312H85.6758V526.316C85.6758 525.559 85.4492 524.957 84.9961 524.512C84.543 524.059 83.875 523.832 82.9922 523.832C82.2188 523.832 81.5703 524.027 81.0469 524.418C80.5234 524.809 80.2617 525.281 80.2617 525.836H78.082C78.082 525.203 78.3047 524.594 78.75 524.008C79.2031 523.414 79.8125 522.945 80.5781 522.602C81.3516 522.258 82.1992 522.086 83.1211 522.086C84.582 522.086 85.7266 522.453 86.5547 523.188C87.3828 523.914 87.8125 524.918 87.8438 526.199V532.035C87.8438 533.199 87.9922 534.125 88.2891 534.812V535H86.0156ZM82.418 533.348C83.0977 533.348 83.7422 533.172 84.3516 532.82C84.9609 532.469 85.4023 532.012 85.6758 531.449V528.848H83.9766C81.3203 528.848 79.9922 529.625 79.9922 531.18C79.9922 531.859 80.2188 532.391 80.6719 532.773C81.125 533.156 81.707 533.348 82.418 533.348ZM102.457 535.234C100.738 535.234 99.3398 534.672 98.2617 533.547C97.1836 532.414 96.6445 530.902 96.6445 529.012V528.613C96.6445 527.355 96.8828 526.234 97.3594 525.25C97.8438 524.258 98.5156 523.484 99.375 522.93C100.242 522.367 101.18 522.086 102.188 522.086C103.836 522.086 105.117 522.629 106.031 523.715C106.945 524.801 107.402 526.355 107.402 528.379V529.281H98.8125C98.8438 530.531 99.207 531.543 99.9023 532.316C100.605 533.082 101.496 533.465 102.574 533.465C103.34 533.465 103.988 533.309 104.52 532.996C105.051 532.684 105.516 532.27 105.914 531.754L107.238 532.785C106.176 534.418 104.582 535.234 102.457 535.234ZM102.188 523.867C101.312 523.867 100.578 524.188 99.9844 524.828C99.3906 525.461 99.0234 526.352 98.8828 527.5H105.234V527.336C105.172 526.234 104.875 525.383 104.344 524.781C103.812 524.172 103.094 523.867 102.188 523.867ZM120.961 533.465C121.734 533.465 122.41 533.23 122.988 532.762C123.566 532.293 123.887 531.707 123.949 531.004H126C125.961 531.73 125.711 532.422 125.25 533.078C124.789 533.734 124.172 534.258 123.398 534.648C122.633 535.039 121.82 535.234 120.961 535.234C119.234 535.234 117.859 534.66 116.836 533.512C115.82 532.355 115.312 530.777 115.312 528.777V528.414C115.312 527.18 115.539 526.082 115.992 525.121C116.445 524.16 117.094 523.414 117.938 522.883C118.789 522.352 119.793 522.086 120.949 522.086C122.371 522.086 123.551 522.512 124.488 523.363C125.434 524.215 125.938 525.32 126 526.68H123.949C123.887 525.859 123.574 525.188 123.012 524.664C122.457 524.133 121.77 523.867 120.949 523.867C119.848 523.867 118.992 524.266 118.383 525.062C117.781 525.852 117.48 526.996 117.48 528.496V528.906C117.48 530.367 117.781 531.492 118.383 532.281C118.984 533.07 119.844 533.465 120.961 533.465ZM127.863 528.543C127.863 527.301 128.105 526.184 128.59 525.191C129.082 524.199 129.762 523.434 130.629 522.895C131.504 522.355 132.5 522.086 133.617 522.086C135.344 522.086 136.738 522.684 137.801 523.879C138.871 525.074 139.406 526.664 139.406 528.648V528.801C139.406 530.035 139.168 531.145 138.691 532.129C138.223 533.105 137.547 533.867 136.664 534.414C135.789 534.961 134.781 535.234 133.641 535.234C131.922 535.234 130.527 534.637 129.457 533.441C128.395 532.246 127.863 530.664 127.863 528.695V528.543ZM130.043 528.801C130.043 530.207 130.367 531.336 131.016 532.188C131.672 533.039 132.547 533.465 133.641 533.465C134.742 533.465 135.617 533.035 136.266 532.176C136.914 531.309 137.238 530.098 137.238 528.543C137.238 527.152 136.906 526.027 136.242 525.168C135.586 524.301 134.711 523.867 133.617 523.867C132.547 523.867 131.684 524.293 131.027 525.145C130.371 525.996 130.043 527.215 130.043 528.801ZM144.164 522.32L144.223 523.727C145.152 522.633 146.406 522.086 147.984 522.086C149.758 522.086 150.965 522.766 151.605 524.125C152.027 523.516 152.574 523.023 153.246 522.648C153.926 522.273 154.727 522.086 155.648 522.086C158.43 522.086 159.844 523.559 159.891 526.504V535H157.723V526.633C157.723 525.727 157.516 525.051 157.102 524.605C156.688 524.152 155.992 523.926 155.016 523.926C154.211 523.926 153.543 524.168 153.012 524.652C152.48 525.129 152.172 525.773 152.086 526.586V535H149.906V526.691C149.906 524.848 149.004 523.926 147.199 523.926C145.777 523.926 144.805 524.531 144.281 525.742V535H142.113V522.32H144.164ZM173.883 528.801C173.883 530.73 173.441 532.285 172.559 533.465C171.676 534.645 170.48 535.234 168.973 535.234C167.434 535.234 166.223 534.746 165.34 533.77V539.875H163.172V522.32H165.152L165.258 523.727C166.141 522.633 167.367 522.086 168.938 522.086C170.461 522.086 171.664 522.66 172.547 523.809C173.438 524.957 173.883 526.555 173.883 528.602V528.801ZM171.715 528.555C171.715 527.125 171.41 525.996 170.801 525.168C170.191 524.34 169.355 523.926 168.293 523.926C166.98 523.926 165.996 524.508 165.34 525.672V531.73C165.988 532.887 166.98 533.465 168.316 533.465C169.355 533.465 170.18 533.055 170.789 532.234C171.406 531.406 171.715 530.18 171.715 528.555ZM184.477 535C184.352 534.75 184.25 534.305 184.172 533.664C183.164 534.711 181.961 535.234 180.562 535.234C179.312 535.234 178.285 534.883 177.48 534.18C176.684 533.469 176.285 532.57 176.285 531.484C176.285 530.164 176.785 529.141 177.785 528.414C178.793 527.68 180.207 527.312 182.027 527.312H184.137V526.316C184.137 525.559 183.91 524.957 183.457 524.512C183.004 524.059 182.336 523.832 181.453 523.832C180.68 523.832 180.031 524.027 179.508 524.418C178.984 524.809 178.723 525.281 178.723 525.836H176.543C176.543 525.203 176.766 524.594 177.211 524.008C177.664 523.414 178.273 522.945 179.039 522.602C179.812 522.258 180.66 522.086 181.582 522.086C183.043 522.086 184.188 522.453 185.016 523.188C185.844 523.914 186.273 524.918 186.305 526.199V532.035C186.305 533.199 186.453 534.125 186.75 534.812V535H184.477ZM180.879 533.348C181.559 533.348 182.203 533.172 182.812 532.82C183.422 532.469 183.863 532.012 184.137 531.449V528.848H182.438C179.781 528.848 178.453 529.625 178.453 531.18C178.453 531.859 178.68 532.391 179.133 532.773C179.586 533.156 180.168 533.348 180.879 533.348ZM195.832 524.266C195.504 524.211 195.148 524.184 194.766 524.184C193.344 524.184 192.379 524.789 191.871 526V535H189.703V522.32H191.812L191.848 523.785C192.559 522.652 193.566 522.086 194.871 522.086C195.293 522.086 195.613 522.141 195.832 522.25V524.266ZM201.363 519.25V522.32H203.73V523.996H201.363V531.859C201.363 532.367 201.469 532.75 201.68 533.008C201.891 533.258 202.25 533.383 202.758 533.383C203.008 533.383 203.352 533.336 203.789 533.242V535C203.219 535.156 202.664 535.234 202.125 535.234C201.156 535.234 200.426 534.941 199.934 534.355C199.441 533.77 199.195 532.938 199.195 531.859V523.996H196.887V522.32H199.195V519.25H201.363ZM208.629 535H206.461V522.32H208.629V535ZM206.285 518.957C206.285 518.605 206.391 518.309 206.602 518.066C206.82 517.824 207.141 517.703 207.562 517.703C207.984 517.703 208.305 517.824 208.523 518.066C208.742 518.309 208.852 518.605 208.852 518.957C208.852 519.309 208.742 519.602 208.523 519.836C208.305 520.07 207.984 520.188 207.562 520.188C207.141 520.188 206.82 520.07 206.602 519.836C206.391 519.602 206.285 519.309 206.285 518.957ZM214.465 535H212.297V517H214.465V535ZM220.113 523.855C221.074 522.676 222.324 522.086 223.863 522.086C226.543 522.086 227.895 523.598 227.918 526.621V535H225.75V526.609C225.742 525.695 225.531 525.02 225.117 524.582C224.711 524.145 224.074 523.926 223.207 523.926C222.504 523.926 221.887 524.113 221.355 524.488C220.824 524.863 220.41 525.355 220.113 525.965V535H217.945V517H220.113V523.855ZM236.426 535.234C234.707 535.234 233.309 534.672 232.23 533.547C231.152 532.414 230.613 530.902 230.613 529.012V528.613C230.613 527.355 230.852 526.234 231.328 525.25C231.812 524.258 232.484 523.484 233.344 522.93C234.211 522.367 235.148 522.086 236.156 522.086C237.805 522.086 239.086 522.629 240 523.715C240.914 524.801 241.371 526.355 241.371 528.379V529.281H232.781C232.812 530.531 233.176 531.543 233.871 532.316C234.574 533.082 235.465 533.465 236.543 533.465C237.309 533.465 237.957 533.309 238.488 532.996C239.02 532.684 239.484 532.27 239.883 531.754L241.207 532.785C240.145 534.418 238.551 535.234 236.426 535.234ZM236.156 523.867C235.281 523.867 234.547 524.188 233.953 524.828C233.359 525.461 232.992 526.352 232.852 527.5H239.203V527.336C239.141 526.234 238.844 525.383 238.312 524.781C237.781 524.172 237.062 523.867 236.156 523.867ZM254.93 533.465C255.703 533.465 256.379 533.23 256.957 532.762C257.535 532.293 257.855 531.707 257.918 531.004H259.969C259.93 531.73 259.68 532.422 259.219 533.078C258.758 533.734 258.141 534.258 257.367 534.648C256.602 535.039 255.789 535.234 254.93 535.234C253.203 535.234 251.828 534.66 250.805 533.512C249.789 532.355 249.281 530.777 249.281 528.777V528.414C249.281 527.18 249.508 526.082 249.961 525.121C250.414 524.16 251.062 523.414 251.906 522.883C252.758 522.352 253.762 522.086 254.918 522.086C256.34 522.086 257.52 522.512 258.457 523.363C259.402 524.215 259.906 525.32 259.969 526.68H257.918C257.855 525.859 257.543 525.188 256.98 524.664C256.426 524.133 255.738 523.867 254.918 523.867C253.816 523.867 252.961 524.266 252.352 525.062C251.75 525.852 251.449 526.996 251.449 528.496V528.906C251.449 530.367 251.75 531.492 252.352 532.281C252.953 533.07 253.812 533.465 254.93 533.465ZM261.832 528.543C261.832 527.301 262.074 526.184 262.559 525.191C263.051 524.199 263.73 523.434 264.598 522.895C265.473 522.355 266.469 522.086 267.586 522.086C269.312 522.086 270.707 522.684 271.77 523.879C272.84 525.074 273.375 526.664 273.375 528.648V528.801C273.375 530.035 273.137 531.145 272.66 532.129C272.191 533.105 271.516 533.867 270.633 534.414C269.758 534.961 268.75 535.234 267.609 535.234C265.891 535.234 264.496 534.637 263.426 533.441C262.363 532.246 261.832 530.664 261.832 528.695V528.543ZM264.012 528.801C264.012 530.207 264.336 531.336 264.984 532.188C265.641 533.039 266.516 533.465 267.609 533.465C268.711 533.465 269.586 533.035 270.234 532.176C270.883 531.309 271.207 530.098 271.207 528.543C271.207 527.152 270.875 526.027 270.211 525.168C269.555 524.301 268.68 523.867 267.586 523.867C266.516 523.867 265.652 524.293 264.996 525.145C264.34 525.996 264.012 527.215 264.012 528.801ZM278.145 522.32L278.215 523.914C279.184 522.695 280.449 522.086 282.012 522.086C284.691 522.086 286.043 523.598 286.066 526.621V535H283.898V526.609C283.891 525.695 283.68 525.02 283.266 524.582C282.859 524.145 282.223 523.926 281.355 523.926C280.652 523.926 280.035 524.113 279.504 524.488C278.973 524.863 278.559 525.355 278.262 525.965V535H276.094V522.32H278.145ZM291.504 523.855C292.465 522.676 293.715 522.086 295.254 522.086C297.934 522.086 299.285 523.598 299.309 526.621V535H297.141V526.609C297.133 525.695 296.922 525.02 296.508 524.582C296.102 524.145 295.465 523.926 294.598 523.926C293.895 523.926 293.277 524.113 292.746 524.488C292.215 524.863 291.801 525.355 291.504 525.965V535H289.336V517H291.504V523.855ZM307.816 535.234C306.098 535.234 304.699 534.672 303.621 533.547C302.543 532.414 302.004 530.902 302.004 529.012V528.613C302.004 527.355 302.242 526.234 302.719 525.25C303.203 524.258 303.875 523.484 304.734 522.93C305.602 522.367 306.539 522.086 307.547 522.086C309.195 522.086 310.477 522.629 311.391 523.715C312.305 524.801 312.762 526.355 312.762 528.379V529.281H304.172C304.203 530.531 304.566 531.543 305.262 532.316C305.965 533.082 306.855 533.465 307.934 533.465C308.699 533.465 309.348 533.309 309.879 532.996C310.41 532.684 310.875 532.27 311.273 531.754L312.598 532.785C311.535 534.418 309.941 535.234 307.816 535.234ZM307.547 523.867C306.672 523.867 305.938 524.188 305.344 524.828C304.75 525.461 304.383 526.352 304.242 527.5H310.594V527.336C310.531 526.234 310.234 525.383 309.703 524.781C309.172 524.172 308.453 523.867 307.547 523.867ZM320.367 533.465C321.141 533.465 321.816 533.23 322.395 532.762C322.973 532.293 323.293 531.707 323.355 531.004H325.406C325.367 531.73 325.117 532.422 324.656 533.078C324.195 533.734 323.578 534.258 322.805 534.648C322.039 535.039 321.227 535.234 320.367 535.234C318.641 535.234 317.266 534.66 316.242 533.512C315.227 532.355 314.719 530.777 314.719 528.777V528.414C314.719 527.18 314.945 526.082 315.398 525.121C315.852 524.16 316.5 523.414 317.344 522.883C318.195 522.352 319.199 522.086 320.355 522.086C321.777 522.086 322.957 522.512 323.895 523.363C324.84 524.215 325.344 525.32 325.406 526.68H323.355C323.293 525.859 322.98 525.188 322.418 524.664C321.863 524.133 321.176 523.867 320.355 523.867C319.254 523.867 318.398 524.266 317.789 525.062C317.188 525.852 316.887 526.996 316.887 528.496V528.906C316.887 530.367 317.188 531.492 317.789 532.281C318.391 533.07 319.25 533.465 320.367 533.465ZM330.199 535H328.031V522.32H330.199V535ZM327.855 518.957C327.855 518.605 327.961 518.309 328.172 518.066C328.391 517.824 328.711 517.703 329.133 517.703C329.555 517.703 329.875 517.824 330.094 518.066C330.312 518.309 330.422 518.605 330.422 518.957C330.422 519.309 330.312 519.602 330.094 519.836C329.875 520.07 329.555 520.188 329.133 520.188C328.711 520.188 328.391 520.07 328.172 519.836C327.961 519.602 327.855 519.309 327.855 518.957ZM335.719 522.32L335.777 523.727C336.707 522.633 337.961 522.086 339.539 522.086C341.312 522.086 342.52 522.766 343.16 524.125C343.582 523.516 344.129 523.023 344.801 522.648C345.48 522.273 346.281 522.086 347.203 522.086C349.984 522.086 351.398 523.559 351.445 526.504V535H349.277V526.633C349.277 525.727 349.07 525.051 348.656 524.605C348.242 524.152 347.547 523.926 346.57 523.926C345.766 523.926 345.098 524.168 344.566 524.652C344.035 525.129 343.727 525.773 343.641 526.586V535H341.461V526.691C341.461 524.848 340.559 523.926 338.754 523.926C337.332 523.926 336.359 524.531 335.836 525.742V535H333.668V522.32H335.719ZM359.988 535.234C358.27 535.234 356.871 534.672 355.793 533.547C354.715 532.414 354.176 530.902 354.176 529.012V528.613C354.176 527.355 354.414 526.234 354.891 525.25C355.375 524.258 356.047 523.484 356.906 522.93C357.773 522.367 358.711 522.086 359.719 522.086C361.367 522.086 362.648 522.629 363.562 523.715C364.477 524.801 364.934 526.355 364.934 528.379V529.281H356.344C356.375 530.531 356.738 531.543 357.434 532.316C358.137 533.082 359.027 533.465 360.105 533.465C360.871 533.465 361.52 533.309 362.051 532.996C362.582 532.684 363.047 532.27 363.445 531.754L364.77 532.785C363.707 534.418 362.113 535.234 359.988 535.234ZM359.719 523.867C358.844 523.867 358.109 524.188 357.516 524.828C356.922 525.461 356.555 526.352 356.414 527.5H362.766V527.336C362.703 526.234 362.406 525.383 361.875 524.781C361.344 524.172 360.625 523.867 359.719 523.867ZM369.504 522.32L369.574 523.914C370.543 522.695 371.809 522.086 373.371 522.086C376.051 522.086 377.402 523.598 377.426 526.621V535H375.258V526.609C375.25 525.695 375.039 525.02 374.625 524.582C374.219 524.145 373.582 523.926 372.715 523.926C372.012 523.926 371.395 524.113 370.863 524.488C370.332 524.863 369.918 525.355 369.621 525.965V535H367.453V522.32H369.504ZM383.637 519.25V522.32H386.004V523.996H383.637V531.859C383.637 532.367 383.742 532.75 383.953 533.008C384.164 533.258 384.523 533.383 385.031 533.383C385.281 533.383 385.625 533.336 386.062 533.242V535C385.492 535.156 384.938 535.234 384.398 535.234C383.43 535.234 382.699 534.941 382.207 534.355C381.715 533.77 381.469 532.938 381.469 531.859V523.996H379.16V522.32H381.469V519.25H383.637ZM387.738 528.543C387.738 527.301 387.98 526.184 388.465 525.191C388.957 524.199 389.637 523.434 390.504 522.895C391.379 522.355 392.375 522.086 393.492 522.086C395.219 522.086 396.613 522.684 397.676 523.879C398.746 525.074 399.281 526.664 399.281 528.648V528.801C399.281 530.035 399.043 531.145 398.566 532.129C398.098 533.105 397.422 533.867 396.539 534.414C395.664 534.961 394.656 535.234 393.516 535.234C391.797 535.234 390.402 534.637 389.332 533.441C388.27 532.246 387.738 530.664 387.738 528.695V528.543ZM389.918 528.801C389.918 530.207 390.242 531.336 390.891 532.188C391.547 533.039 392.422 533.465 393.516 533.465C394.617 533.465 395.492 533.035 396.141 532.176C396.789 531.309 397.113 530.098 397.113 528.543C397.113 527.152 396.781 526.027 396.117 525.168C395.461 524.301 394.586 523.867 393.492 523.867C392.422 523.867 391.559 524.293 390.902 525.145C390.246 525.996 389.918 527.215 389.918 528.801ZM6.72656 565.465C7.5 565.465 8.17578 565.23 8.75391 564.762C9.33203 564.293 9.65234 563.707 9.71484 563.004H11.7656C11.7266 563.73 11.4766 564.422 11.0156 565.078C10.5547 565.734 9.9375 566.258 9.16406 566.648C8.39844 567.039 7.58594 567.234 6.72656 567.234C5 567.234 3.625 566.66 2.60156 565.512C1.58594 564.355 1.07812 562.777 1.07812 560.777V560.414C1.07812 559.18 1.30469 558.082 1.75781 557.121C2.21094 556.16 2.85938 555.414 3.70312 554.883C4.55469 554.352 5.55859 554.086 6.71484 554.086C8.13672 554.086 9.31641 554.512 10.2539 555.363C11.1992 556.215 11.7031 557.32 11.7656 558.68H9.71484C9.65234 557.859 9.33984 557.188 8.77734 556.664C8.22266 556.133 7.53516 555.867 6.71484 555.867C5.61328 555.867 4.75781 556.266 4.14844 557.062C3.54688 557.852 3.24609 558.996 3.24609 560.496V560.906C3.24609 562.367 3.54688 563.492 4.14844 564.281C4.75 565.07 5.60938 565.465 6.72656 565.465ZM13.6289 560.543C13.6289 559.301 13.8711 558.184 14.3555 557.191C14.8477 556.199 15.5273 555.434 16.3945 554.895C17.2695 554.355 18.2656 554.086 19.3828 554.086C21.1094 554.086 22.5039 554.684 23.5664 555.879C24.6367 557.074 25.1719 558.664 25.1719 560.648V560.801C25.1719 562.035 24.9336 563.145 24.457 564.129C23.9883 565.105 23.3125 565.867 22.4297 566.414C21.5547 566.961 20.5469 567.234 19.4062 567.234C17.6875 567.234 16.293 566.637 15.2227 565.441C14.1602 564.246 13.6289 562.664 13.6289 560.695V560.543ZM15.8086 560.801C15.8086 562.207 16.1328 563.336 16.7812 564.188C17.4375 565.039 18.3125 565.465 19.4062 565.465C20.5078 565.465 21.3828 565.035 22.0312 564.176C22.6797 563.309 23.0039 562.098 23.0039 560.543C23.0039 559.152 22.6719 558.027 22.0078 557.168C21.3516 556.301 20.4766 555.867 19.3828 555.867C18.3125 555.867 17.4492 556.293 16.793 557.145C16.1367 557.996 15.8086 559.215 15.8086 560.801ZM29.9297 554.32L29.9883 555.727C30.918 554.633 32.1719 554.086 33.75 554.086C35.5234 554.086 36.7305 554.766 37.3711 556.125C37.793 555.516 38.3398 555.023 39.0117 554.648C39.6914 554.273 40.4922 554.086 41.4141 554.086C44.1953 554.086 45.6094 555.559 45.6562 558.504V567H43.4883V558.633C43.4883 557.727 43.2812 557.051 42.8672 556.605C42.4531 556.152 41.7578 555.926 40.7812 555.926C39.9766 555.926 39.3086 556.168 38.7773 556.652C38.2461 557.129 37.9375 557.773 37.8516 558.586V567H35.6719V558.691C35.6719 556.848 34.7695 555.926 32.9648 555.926C31.543 555.926 30.5703 556.531 30.0469 557.742V567H27.8789V554.32H29.9297ZM54.3164 560.543C54.3164 559.301 54.5586 558.184 55.043 557.191C55.5352 556.199 56.2148 555.434 57.082 554.895C57.957 554.355 58.9531 554.086 60.0703 554.086C61.7969 554.086 63.1914 554.684 64.2539 555.879C65.3242 557.074 65.8594 558.664 65.8594 560.648V560.801C65.8594 562.035 65.6211 563.145 65.1445 564.129C64.6758 565.105 64 565.867 63.1172 566.414C62.2422 566.961 61.2344 567.234 60.0938 567.234C58.375 567.234 56.9805 566.637 55.9102 565.441C54.8477 564.246 54.3164 562.664 54.3164 560.695V560.543ZM56.4961 560.801C56.4961 562.207 56.8203 563.336 57.4688 564.188C58.125 565.039 59 565.465 60.0938 565.465C61.1953 565.465 62.0703 565.035 62.7188 564.176C63.3672 563.309 63.6914 562.098 63.6914 560.543C63.6914 559.152 63.3594 558.027 62.6953 557.168C62.0391 556.301 61.1641 555.867 60.0703 555.867C59 555.867 58.1367 556.293 57.4805 557.145C56.8242 557.996 56.4961 559.215 56.4961 560.801ZM76.4062 565.746C75.5625 566.738 74.3242 567.234 72.6914 567.234C71.3398 567.234 70.3086 566.844 69.5977 566.062C68.8945 565.273 68.5391 564.109 68.5312 562.57V554.32H70.6992V562.512C70.6992 564.434 71.4805 565.395 73.043 565.395C74.6992 565.395 75.8008 564.777 76.3477 563.543V554.32H78.5156V567H76.4531L76.4062 565.746ZM84.7617 551.25V554.32H87.1289V555.996H84.7617V563.859C84.7617 564.367 84.8672 564.75 85.0781 565.008C85.2891 565.258 85.6484 565.383 86.1562 565.383C86.4062 565.383 86.75 565.336 87.1875 565.242V567C86.6172 567.156 86.0625 567.234 85.5234 567.234C84.5547 567.234 83.8242 566.941 83.332 566.355C82.8398 565.77 82.5938 564.938 82.5938 563.859V555.996H80.2852V554.32H82.5938V551.25H84.7617ZM95.8008 556.266C95.4727 556.211 95.1172 556.184 94.7344 556.184C93.3125 556.184 92.3477 556.789 91.8398 558V567H89.6719V554.32H91.7812L91.8164 555.785C92.5273 554.652 93.5352 554.086 94.8398 554.086C95.2617 554.086 95.582 554.141 95.8008 554.25V556.266ZM105.164 567C105.039 566.75 104.938 566.305 104.859 565.664C103.852 566.711 102.648 567.234 101.25 567.234C100 567.234 98.9727 566.883 98.168 566.18C97.3711 565.469 96.9727 564.57 96.9727 563.484C96.9727 562.164 97.4727 561.141 98.4727 560.414C99.4805 559.68 100.895 559.312 102.715 559.312H104.824V558.316C104.824 557.559 104.598 556.957 104.145 556.512C103.691 556.059 103.023 555.832 102.141 555.832C101.367 555.832 100.719 556.027 100.195 556.418C99.6719 556.809 99.4102 557.281 99.4102 557.836H97.2305C97.2305 557.203 97.4531 556.594 97.8984 556.008C98.3516 555.414 98.9609 554.945 99.7266 554.602C100.5 554.258 101.348 554.086 102.27 554.086C103.73 554.086 104.875 554.453 105.703 555.188C106.531 555.914 106.961 556.918 106.992 558.199V564.035C106.992 565.199 107.141 566.125 107.438 566.812V567H105.164ZM101.566 565.348C102.246 565.348 102.891 565.172 103.5 564.82C104.109 564.469 104.551 564.012 104.824 563.449V560.848H103.125C100.469 560.848 99.1406 561.625 99.1406 563.18C99.1406 563.859 99.3672 564.391 99.8203 564.773C100.273 565.156 100.855 565.348 101.566 565.348ZM117.773 563.637C117.773 563.051 117.551 562.598 117.105 562.277C116.668 561.949 115.898 561.668 114.797 561.434C113.703 561.199 112.832 560.918 112.184 560.59C111.543 560.262 111.066 559.871 110.754 559.418C110.449 558.965 110.297 558.426 110.297 557.801C110.297 556.762 110.734 555.883 111.609 555.164C112.492 554.445 113.617 554.086 114.984 554.086C116.422 554.086 117.586 554.457 118.477 555.199C119.375 555.941 119.824 556.891 119.824 558.047H117.645C117.645 557.453 117.391 556.941 116.883 556.512C116.383 556.082 115.75 555.867 114.984 555.867C114.195 555.867 113.578 556.039 113.133 556.383C112.688 556.727 112.465 557.176 112.465 557.73C112.465 558.254 112.672 558.648 113.086 558.914C113.5 559.18 114.246 559.434 115.324 559.676C116.41 559.918 117.289 560.207 117.961 560.543C118.633 560.879 119.129 561.285 119.449 561.762C119.777 562.23 119.941 562.805 119.941 563.484C119.941 564.617 119.488 565.527 118.582 566.215C117.676 566.895 116.5 567.234 115.055 567.234C114.039 567.234 113.141 567.055 112.359 566.695C111.578 566.336 110.965 565.836 110.52 565.195C110.082 564.547 109.863 563.848 109.863 563.098H112.031C112.07 563.824 112.359 564.402 112.898 564.832C113.445 565.254 114.164 565.465 115.055 565.465C115.875 565.465 116.531 565.301 117.023 564.973C117.523 564.637 117.773 564.191 117.773 563.637ZM139.43 560.801C139.43 562.73 138.988 564.285 138.105 565.465C137.223 566.645 136.027 567.234 134.52 567.234C132.98 567.234 131.77 566.746 130.887 565.77V571.875H128.719V554.32H130.699L130.805 555.727C131.688 554.633 132.914 554.086 134.484 554.086C136.008 554.086 137.211 554.66 138.094 555.809C138.984 556.957 139.43 558.555 139.43 560.602V560.801ZM137.262 560.555C137.262 559.125 136.957 557.996 136.348 557.168C135.738 556.34 134.902 555.926 133.84 555.926C132.527 555.926 131.543 556.508 130.887 557.672V563.73C131.535 564.887 132.527 565.465 133.863 565.465C134.902 565.465 135.727 565.055 136.336 564.234C136.953 563.406 137.262 562.18 137.262 560.555ZM147.457 567.234C145.738 567.234 144.34 566.672 143.262 565.547C142.184 564.414 141.645 562.902 141.645 561.012V560.613C141.645 559.355 141.883 558.234 142.359 557.25C142.844 556.258 143.516 555.484 144.375 554.93C145.242 554.367 146.18 554.086 147.188 554.086C148.836 554.086 150.117 554.629 151.031 555.715C151.945 556.801 152.402 558.355 152.402 560.379V561.281H143.812C143.844 562.531 144.207 563.543 144.902 564.316C145.605 565.082 146.496 565.465 147.574 565.465C148.34 565.465 148.988 565.309 149.52 564.996C150.051 564.684 150.516 564.27 150.914 563.754L152.238 564.785C151.176 566.418 149.582 567.234 147.457 567.234ZM147.188 555.867C146.312 555.867 145.578 556.188 144.984 556.828C144.391 557.461 144.023 558.352 143.883 559.5H150.234V559.336C150.172 558.234 149.875 557.383 149.344 556.781C148.812 556.172 148.094 555.867 147.188 555.867ZM162.305 563.637C162.305 563.051 162.082 562.598 161.637 562.277C161.199 561.949 160.43 561.668 159.328 561.434C158.234 561.199 157.363 560.918 156.715 560.59C156.074 560.262 155.598 559.871 155.285 559.418C154.98 558.965 154.828 558.426 154.828 557.801C154.828 556.762 155.266 555.883 156.141 555.164C157.023 554.445 158.148 554.086 159.516 554.086C160.953 554.086 162.117 554.457 163.008 555.199C163.906 555.941 164.355 556.891 164.355 558.047H162.176C162.176 557.453 161.922 556.941 161.414 556.512C160.914 556.082 160.281 555.867 159.516 555.867C158.727 555.867 158.109 556.039 157.664 556.383C157.219 556.727 156.996 557.176 156.996 557.73C156.996 558.254 157.203 558.648 157.617 558.914C158.031 559.18 158.777 559.434 159.855 559.676C160.941 559.918 161.82 560.207 162.492 560.543C163.164 560.879 163.66 561.285 163.98 561.762C164.309 562.23 164.473 562.805 164.473 563.484C164.473 564.617 164.02 565.527 163.113 566.215C162.207 566.895 161.031 567.234 159.586 567.234C158.57 567.234 157.672 567.055 156.891 566.695C156.109 566.336 155.496 565.836 155.051 565.195C154.613 564.547 154.395 563.848 154.395 563.098H156.562C156.602 563.824 156.891 564.402 157.43 564.832C157.977 565.254 158.695 565.465 159.586 565.465C160.406 565.465 161.062 565.301 161.555 564.973C162.055 564.637 162.305 564.191 162.305 563.637ZM174.68 563.637C174.68 563.051 174.457 562.598 174.012 562.277C173.574 561.949 172.805 561.668 171.703 561.434C170.609 561.199 169.738 560.918 169.09 560.59C168.449 560.262 167.973 559.871 167.66 559.418C167.355 558.965 167.203 558.426 167.203 557.801C167.203 556.762 167.641 555.883 168.516 555.164C169.398 554.445 170.523 554.086 171.891 554.086C173.328 554.086 174.492 554.457 175.383 555.199C176.281 555.941 176.73 556.891 176.73 558.047H174.551C174.551 557.453 174.297 556.941 173.789 556.512C173.289 556.082 172.656 555.867 171.891 555.867C171.102 555.867 170.484 556.039 170.039 556.383C169.594 556.727 169.371 557.176 169.371 557.73C169.371 558.254 169.578 558.648 169.992 558.914C170.406 559.18 171.152 559.434 172.23 559.676C173.316 559.918 174.195 560.207 174.867 560.543C175.539 560.879 176.035 561.285 176.355 561.762C176.684 562.23 176.848 562.805 176.848 563.484C176.848 564.617 176.395 565.527 175.488 566.215C174.582 566.895 173.406 567.234 171.961 567.234C170.945 567.234 170.047 567.055 169.266 566.695C168.484 566.336 167.871 565.836 167.426 565.195C166.988 564.547 166.77 563.848 166.77 563.098H168.938C168.977 563.824 169.266 564.402 169.805 564.832C170.352 565.254 171.07 565.465 171.961 565.465C172.781 565.465 173.438 565.301 173.93 564.973C174.43 564.637 174.68 564.191 174.68 563.637ZM179.098 560.543C179.098 559.301 179.34 558.184 179.824 557.191C180.316 556.199 180.996 555.434 181.863 554.895C182.738 554.355 183.734 554.086 184.852 554.086C186.578 554.086 187.973 554.684 189.035 555.879C190.105 557.074 190.641 558.664 190.641 560.648V560.801C190.641 562.035 190.402 563.145 189.926 564.129C189.457 565.105 188.781 565.867 187.898 566.414C187.023 566.961 186.016 567.234 184.875 567.234C183.156 567.234 181.762 566.637 180.691 565.441C179.629 564.246 179.098 562.664 179.098 560.695V560.543ZM181.277 560.801C181.277 562.207 181.602 563.336 182.25 564.188C182.906 565.039 183.781 565.465 184.875 565.465C185.977 565.465 186.852 565.035 187.5 564.176C188.148 563.309 188.473 562.098 188.473 560.543C188.473 559.152 188.141 558.027 187.477 557.168C186.82 556.301 185.945 555.867 184.852 555.867C183.781 555.867 182.918 556.293 182.262 557.145C181.605 557.996 181.277 559.215 181.277 560.801ZM201.188 567C201.062 566.75 200.961 566.305 200.883 565.664C199.875 566.711 198.672 567.234 197.273 567.234C196.023 567.234 194.996 566.883 194.191 566.18C193.395 565.469 192.996 564.57 192.996 563.484C192.996 562.164 193.496 561.141 194.496 560.414C195.504 559.68 196.918 559.312 198.738 559.312H200.848V558.316C200.848 557.559 200.621 556.957 200.168 556.512C199.715 556.059 199.047 555.832 198.164 555.832C197.391 555.832 196.742 556.027 196.219 556.418C195.695 556.809 195.434 557.281 195.434 557.836H193.254C193.254 557.203 193.477 556.594 193.922 556.008C194.375 555.414 194.984 554.945 195.75 554.602C196.523 554.258 197.371 554.086 198.293 554.086C199.754 554.086 200.898 554.453 201.727 555.188C202.555 555.914 202.984 556.918 203.016 558.199V564.035C203.016 565.199 203.164 566.125 203.461 566.812V567H201.188ZM197.59 565.348C198.27 565.348 198.914 565.172 199.523 564.82C200.133 564.469 200.574 564.012 200.848 563.449V560.848H199.148C196.492 560.848 195.164 561.625 195.164 563.18C195.164 563.859 195.391 564.391 195.844 564.773C196.297 565.156 196.879 565.348 197.59 565.348ZM213.797 563.637C213.797 563.051 213.574 562.598 213.129 562.277C212.691 561.949 211.922 561.668 210.82 561.434C209.727 561.199 208.855 560.918 208.207 560.59C207.566 560.262 207.09 559.871 206.777 559.418C206.473 558.965 206.32 558.426 206.32 557.801C206.32 556.762 206.758 555.883 207.633 555.164C208.516 554.445 209.641 554.086 211.008 554.086C212.445 554.086 213.609 554.457 214.5 555.199C215.398 555.941 215.848 556.891 215.848 558.047H213.668C213.668 557.453 213.414 556.941 212.906 556.512C212.406 556.082 211.773 555.867 211.008 555.867C210.219 555.867 209.602 556.039 209.156 556.383C208.711 556.727 208.488 557.176 208.488 557.73C208.488 558.254 208.695 558.648 209.109 558.914C209.523 559.18 210.27 559.434 211.348 559.676C212.434 559.918 213.312 560.207 213.984 560.543C214.656 560.879 215.152 561.285 215.473 561.762C215.801 562.23 215.965 562.805 215.965 563.484C215.965 564.617 215.512 565.527 214.605 566.215C213.699 566.895 212.523 567.234 211.078 567.234C210.062 567.234 209.164 567.055 208.383 566.695C207.602 566.336 206.988 565.836 206.543 565.195C206.105 564.547 205.887 563.848 205.887 563.098H208.055C208.094 563.824 208.383 564.402 208.922 564.832C209.469 565.254 210.188 565.465 211.078 565.465C211.898 565.465 212.555 565.301 213.047 564.973C213.547 564.637 213.797 564.191 213.797 563.637Z" fill="#F8F8F8"/>
<defs>
<linearGradient id="paint0_linear_114_0" x1="33.6176" y1="97.7763" x2="144.84" y2="178.888" gradientUnits="userSpaceOnUse">
<stop stop-color="white"/>
<stop offset="1" stop-color="white" stop-opacity="0"/>
</linearGradient>
<linearGradient id="paint1_linear_114_0" x1="90.2879" y1="19.8906" x2="201.51" y2="101.002" gradientUnits="userSpaceOnUse">
<stop stop-color="white"/>
<stop offset="1" stop-color="white" stop-opacity="0"/>
</linearGradient>
<linearGradient id="paint2_linear_114_0" x1="16.023" y1="83.4889" x2="127.245" y2="164.601" gradientUnits="userSpaceOnUse">
<stop stop-color="white"/>
<stop offset="1" stop-color="white" stop-opacity="0"/>
</linearGradient>
<linearGradient id="paint3_linear_114_0" x1="72.6933" y1="5.60276" x2="183.915" y2="86.7144" gradientUnits="userSpaceOnUse">
<stop stop-color="white"/>
<stop offset="1" stop-color="white" stop-opacity="0"/>
</linearGradient>
<linearGradient id="paint4_linear_114_0" x1="69.2705" y1="226.769" x2="86.7271" y2="257.005" gradientUnits="userSpaceOnUse">
<stop stop-color="white"/>
<stop offset="1" stop-color="white" stop-opacity="0"/>
</linearGradient>
<linearGradient id="paint5_linear_114_0" x1="226.423" y1="180.183" x2="243.88" y2="210.419" gradientUnits="userSpaceOnUse">
<stop stop-color="white"/>
<stop offset="1" stop-color="white" stop-opacity="0"/>
</linearGradient>
<linearGradient id="paint6_linear_114_0" x1="83.6607" y1="244.547" x2="64.6993" y2="398.299" gradientUnits="userSpaceOnUse">
<stop stop-color="white"/>
<stop offset="1" stop-color="white" stop-opacity="0"/>
</linearGradient>
<linearGradient id="paint7_linear_114_0" x1="198.387" y1="233.403" x2="274.093" y2="292.664" gradientUnits="userSpaceOnUse">
<stop stop-color="white"/>
<stop offset="1" stop-color="white" stop-opacity="0"/>
</linearGradient>
<linearGradient id="paint8_linear_114_0" x1="242.889" y1="328.562" x2="265.686" y2="346.549" gradientUnits="userSpaceOnUse">
<stop stop-color="white"/>
<stop offset="1" stop-color="white" stop-opacity="0"/>
</linearGradient>
<linearGradient id="paint9_linear_114_0" x1="54.215" y1="165.456" x2="76.298" y2="177.763" gradientUnits="userSpaceOnUse">
<stop stop-color="white"/>
<stop offset="1" stop-color="white" stop-opacity="0"/>
</linearGradient>
</defs>
</svg>
